AKA La marche de l'empereur
 
http://www.imdb.com/title/tt0428803/

Source: March.Of.The.Penguins.2005.DVD5.720p.HDDVD.x264-REVEiLLE Thanks!

Subs: Arabic, Bulgarian, Danish, Dutch, English, Farsi-Persian, Finnish, Polish, Romanian and Spanish.

Sample and Screens included.

General
Complete name                    : March Of The Penguins-720p MP4 AAC x264 HDDVD 2005-CC.mp4
Format                           : MPEG-4
Format profile                   : Base Media
Codec ID                         : isom
File size                        : 2.29 GiB
Duration                         : 1h 20mn
Overall bit rate                 : 4 092 Kbps
Encoded date                     : UTC 2012-08-11 10:20:09

Video
ID                               : 1
Format                           : AVC
Format/Info                      : Advanced Video Codec
Format profile                   : High@L3.1
Format settings, CABAC           : Yes
Format settings, ReFrames        : 5 frames
Codec ID                         : avc1
Codec ID/Info                    : Advanced Video Coding
Duration                         : 1h 20mn
Bit rate mode                    : Variable
Bit rate                         : 3 705 Kbps
Nominal bit rate                 : 3 757 Kbps
Maximum bit rate                 : 31.3 Mbps
Width                            : 1 280 pixels
Height                           : 688 pixels
Display aspect ratio             : 1.860
Frame rate mode                  : Variable
Frame rate                       : 23.976 fps
Minimum frame rate               : 19.048 fps
Maximum frame rate               : 24.390 fps
Resolution                       : 24 bits
Colorimetry                      : 4:2:0
Scan type                        : Progressive
Bits/(Pixel*Frame)               : 0.175
Stream size                      : 2.08 GiB (90%)
Writing library                  : x264 core 112

Audio
ID                               : 2
Format                           : AAC
Format/Info                      : Advanced Audio Codec
Format version                   : Version 4
Format profile                   : LC
Format settings, SBR             : No
Codec ID                         : 40
Duration                         : 1h 20mn
Bit rate mode                    : Variable
Bit rate                         : 384 Kbps
Maximum bit rate                 : 539 Kbps
Channel(s)                       : 6 channels
Channel positions                : Front: L C R, Rear: L R, LFE
Sampling rate                    : 48.0 KHz
Resolution                       : 16 bits
Stream size                      : 220 MiB (9%)


Enjoy...

Requested by DreamExtractor.

Coming up soon: Snatch, The Manchurian Candidate, Before the Devil Knows Youre Dead, The Recruit....